<?xml version="1.0" encoding="UTF-8"?>
<svg id="logo_Image" data-name="logo Image" xmlns="http://www.w3.org/2000/svg" viewBox="0 0 40.35 23.55">
  <defs>
    <style>
      .cls-1 {
        fill: #000;
        stroke-width: 0px;
      }
    </style>
  </defs>
  <path class="cls-1" d="M40.35,20.71c-.03.08-.06.16-.08.24-.38,1.54-1.7,2.6-3.29,2.6-11.2,0-22.41,0-33.61,0-1.87,0-3.36-1.48-3.37-3.34-.01-3.95,0-7.9,0-11.85,0-1.85,1.49-3.34,3.32-3.35,6.29,0,12.58,0,18.86,0,.07,0,.15,0,.24.01v.74h-.45c-6.15,0-12.3,0-18.45,0-1.68,0-2.79,1.1-2.79,2.79,0,3.84,0,7.68,0,11.51,0,1.63,1.12,2.75,2.75,2.75,11.1,0,22.21,0,33.31,0,1.69,0,2.79-1.1,2.79-2.78,0-3.78,0-7.55,0-11.33,0-1.87-1-2.89-2.86-2.94-.06,0-.12,0-.2-.01v-.72c1.27-.1,2.34.29,3.1,1.32.32.44.47,1,.7,1.5v12.86Z"/>
  <path class="cls-1" d="M30.1,0c.34.05.69.09,1.03.15,1.11.2,2.15.57,3,1.34.8.72,1.11,1.63.91,2.7-.02.1-.05.19-.09.29-.01.03-.04.06-.08.11-.16-.15-.31-.3-.47-.43-.66-.54-1.45-.8-2.28-.84-.79-.04-1.59.01-2.38.08-.57.05-.86-.06-1.14-.65,2.2-.45,4.24-.24,6.05,1.21.23-.66-.2-1.88-.81-2.23-.28-.16-.54-.17-.79.07-.23.23-.23.43-.03.8-.74-.14-1.51-.35-2.3-.42-.77-.07-1.56.01-2.4.03-.1-.66-.05-1.35.35-1.98.07-.11.24-.15.37-.22.35,0,.7,0,1.05,0Z"/>
  <path class="cls-1" d="M5.04,10c.37,0,.7-.01,1.03.01.08,0,.2.14.21.23.31,2.24.61,4.49.91,6.73.19,1.41.38,2.81.56,4.22.02.12.03.25.05.4h-.69c-.1-.76-.21-1.52-.29-2.29-.03-.31-.13-.43-.46-.41-.5.03-1,.02-1.5,0-.26,0-.34.08-.37.33-.09.79-.2,1.58-.3,2.38h-.71c.52-3.86,1.03-7.69,1.55-11.59ZM5.74,10.97c-.05,0-.1,0-.15,0-.3,2.32-.6,4.63-.91,6.96h1.96c-.3-2.34-.6-4.65-.9-6.96Z"/>
  <path class="cls-1" d="M36.53,21.59h-.68c-.1-.77-.21-1.53-.29-2.29-.03-.3-.11-.44-.45-.42-.47.03-.95.03-1.42,0-.31-.02-.43.08-.46.4-.07.77-.19,1.53-.29,2.31h-.71c.52-3.85,1.03-7.69,1.55-11.59.35,0,.71-.01,1.06.01.07,0,.17.16.18.25.29,2.08.56,4.17.84,6.25.21,1.58.43,3.16.64,4.73.01.11.01.22.02.34ZM35.38,17.93c-.3-2.34-.6-4.66-.9-6.98-.05,0-.1,0-.15,0-.3,2.32-.61,4.63-.91,6.98h1.96Z"/>
  <path class="cls-1" d="M27.86,1.03c-.16.95-.13,1.86.57,2.53-.46.37-.98.68-1.35,1.11-.35.41-.68.82-1.1,1.17-1.06.9-1.28,2.6-.59,3.95.42.82,1.04,1.45,1.81,1.95.12.08.25.16.37.24-.01.03-.03.06-.04.08-.31-.14-.64-.24-.92-.42-2.03-1.27-2.93-3.13-2.76-5.5.09-1.23.49-2.37,1.33-3.3.31-.34.73-.58,1.1-.87.07-.06.17-.11.19-.19.21-.77.57-.98,1.39-.76ZM27.1,2.08c.05,0,.1,0,.15,0,.08-.14.23-.29.21-.42-.01-.12-.21-.21-.32-.32-.11.13-.28.24-.3.38-.01.11.17.24.26.36Z"/>
  <path class="cls-1" d="M11.23,18.16s.08.06.12.06c.61.07.93.47,1.07,1,.2.77.37,1.55.56,2.35h-.7c-.14-.66-.29-1.33-.44-1.99-.2-.9-.47-1.11-1.39-1.12-.26,0-.52,0-.84,0v3.12h-.65v-7.88c.95.04,1.91-.14,2.82.26.12.05.25.12.35.21.75.64.78,1.49.65,2.36-.11.76-.57,1.25-1.31,1.47-.07.02-.14.04-.21.07-.02,0-.02.04-.03.08ZM9.63,14.35v3.51c.83-.03,1.71.15,2.23-.66.44-.69.44-1.5.03-2.21-.52-.89-1.44-.57-2.26-.64Z"/>
  <path class="cls-1" d="M24.82,21.61v-7.96c.75.06,1.49.05,2.2.19.72.14,1.18.71,1.41,1.38.58,1.63.6,3.28.01,4.9-.38,1.06-1.08,1.48-2.21,1.48-.46,0-.92,0-1.41,0ZM25.49,20.99c.2,0,.37,0,.54,0,1.21,0,1.72-.4,1.96-1.59.23-1.15.25-2.31-.01-3.45-.31-1.32-1-1.81-2.49-1.56v6.59Z"/>
  <path class="cls-1" d="M20.76,13.7c.36,0,.67-.02.98.01.1,0,.25.12.27.21.51,2.52,1,5.05,1.5,7.58,0,.02,0,.05-.02.09h-.66c-.1-.51-.21-1.01-.29-1.53-.04-.26-.14-.33-.39-.32-.52.02-1.05.02-1.57,0-.25,0-.34.08-.38.33-.07.5-.19,1-.29,1.52h-.71c.52-2.63,1.03-5.24,1.55-7.89ZM21.45,14.35h-.14c-.3,1.58-.61,3.17-.91,4.75h1.96c-.31-1.61-.61-3.18-.91-4.75Z"/>
  <path class="cls-1" d="M17.66,18.43c.22.01.4.03.62.04.04.85.05,1.68-.38,2.44-.64,1.13-2.33,1.14-3.07.02-.4-.61-.52-1.31-.57-2.03-.1-1.31-.1-2.62.34-3.88.38-1.08,1.14-1.57,2.16-1.43.42.06.74.27.99.61.35.48.56,1.44.44,2.09-.18.01-.36.03-.58.05-.01-.1-.02-.2-.03-.29-.03-.23-.04-.47-.08-.7-.12-.67-.48-1.08-.98-1.13-.5-.05-.95.26-1.2.89-.44,1.09-.46,2.24-.39,3.38.03.53.14,1.06.26,1.58.06.24.2.49.37.68.49.55,1.38.49,1.71-.17.22-.44.27-.97.37-1.46.04-.2,0-.42,0-.68Z"/>
  <path class="cls-1" d="M30.44,13.73h.63v7.87h-.63v-7.87Z"/>
  <path class="cls-1" d="M15.39,7.35c.46.09.94.14,1.38.28.53.16.78.55.78,1.06,0,.51-.24.9-.76,1.08-.92.32-1.86.32-2.79.01-.53-.17-.77-.57-.76-1.12,0-.53.24-.9.78-1.06.44-.13.9-.18,1.36-.26ZM15.39,9.82c.26-.05.52-.08.77-.16.49-.16.7-.47.7-.98,0-.49-.24-.86-.73-.94-.47-.08-.96-.08-1.43-.01-.49.07-.73.45-.74.94-.01.49.22.85.68,1,.24.08.51.11.77.16Z"/>
  <path class="cls-1" d="M21.27,7.37c.34.07.81.11,1.26.25.53.16.78.55.79,1.05,0,.51-.24.91-.75,1.09-.93.32-1.89.33-2.82,0-.5-.17-.74-.57-.74-1.1,0-.53.25-.87.77-1.07.13-.05.26-.1.39-.12.32-.04.64-.07,1.1-.12ZM21.18,9.81c.25-.05.51-.08.75-.16.49-.16.7-.48.69-.98,0-.49-.24-.85-.74-.94-.46-.08-.94-.08-1.4-.02-.51.07-.76.44-.77.95-.01.5.24.86.72,1.01.24.07.49.09.75.14Z"/>
  <path class="cls-1" d="M9.24,9.72c1.11.04,2.12-.02,3.12.03v.16h-3.96c.12-.14.19-.26.3-.33.73-.54,1.47-1.07,2.2-1.61.11-.08.21-.16.3-.34h-2.6s0-.08,0-.12h3.44s.04.05.07.08c-.89.74-1.88,1.36-2.86,2.13Z"/>
  <path class="cls-1" d="M31.94,12.46c-1.39.49-2.66.12-3.82-.66-.98-.65-1.77-1.48-1.83-2.77,1.2,2.27,3.13,3.33,5.65,3.43Z"/>
  <path class="cls-1" d="M26.87,6.63c-.18,2.47,1.28,3.86,3.27,4.91-1.15.12-2.82-1.21-3.39-2.67-.38-.97-.32-1.91.12-2.24Z"/>
  <path class="cls-1" d="M31.82,10.41c-.4-1.04-.79-2.08-1.47-2.98-.68-.9-1.51-1.6-2.65-1.89,0-.04.01-.07.02-.11.16,0,.32-.02.48,0,.66.1,1.21.45,1.7.88,1.23,1.09,1.82,2.48,1.92,4.1Z"/>
  <path class="cls-1" d="M31.65,11c-1.67.3-4.23-1.81-4.08-3.22.92,1.67,2.32,2.67,4.08,3.22Z"/>
  <path class="cls-1" d="M27.82.3c-.21.08-.42.18-.64.24-.83.22-1.48.72-2.01,1.36-.33.4-.59.85-.87,1.25.13-1.35,1.96-3.07,3.52-2.86Z"/>
</svg>