<?xml version="1.0" encoding="UTF-8"?><svg id="b" xmlns="http://www.w3.org/2000/svg" width="113.8" height="158.8" viewBox="0 0 113.8 158.8"><g id="c"><path d="M102.9,155.9c-.3,0-.2,.2,.3,.2,0,0,0-.2-.3-.2Zm-3.5,0c-.3,0-.4,0-.5,0,.2,0,.6,0,.5,0Zm-2.6-.5c-.9,0-.8,.3,0,.2,.2-.1,0,0,0-.2Zm12.4-34.3c0,0,.1,0,0-.2h-.1v.7c0-.2,0-.5,0-.5ZM12,158.8h.2s0,0,0,0h-.2ZM109.2,.9h0ZM.6,106.8c0,.2,0,.4,.1,.6l-.5-5.3c0,.3,0,.5,0,.8-.1,0-.1-.3-.2-.4v2.6c0,0,.1,0,.2-.1,0,.2,0,1,.2,1.1,.1,.2,.1,.3,.2,.7Zm.1,.6H.7v0Zm75.6,46.8h0Zm34.7-36.1s0-.1,0-.2c0,.2,0,.2,0,.5,0,0,0-.1,.1-.3ZM48.1,0h-.3c0,0,.2,0,.3,0ZM113.8,2.1h0v0ZM0,100.9c0,0,.1,0,.2,.2v.9l-.2-2.7v1.6Zm107.8,55.2h0Zm1.9-36.8h0ZM.6,134.7v0H.6Zm109.1-15.9v0h0Zm-18.9,36.2s0,0,.3,0c0,0,0-.1-.2-.1,0,0,0,0-.2,0ZM.4,107.2c0-.2,0-.2,0-.5,0,0,0,.1-.1,.3,0,0,0,.1,0,.2Zm12,50.8h0Zm60.5,0h0Zm19.5-3.2c-.4,0-.3,0-.6,0-.1,.1,.8,.1,.6,0Zm-15,2.8h0Zm30.7,1.1h0Zm-36.9-2h1.7c-.3,0-.4-.2-1.1-.2,.2,.2-.2,.2-.5,.2Zm-7.7,2.1h0s0,0,0,0Zm50.4-.9c0,.1,0,.2-.1,.3,0,0,0-.1,0,.3h0c-.3,0-.5,.2-.2,.3h.4v-.9Zm-59.5-1.1c-.4,0-.6,0-.6,0,.2,0,.4,0,.5,0,0,0,0,0,.2-.1ZM1,128.6h0v-.3h0v.3Zm55.5,28.5c.6-.2-.9,0,0,0h0ZM112.3,7.5c0,0,.1,.1,.1,.5,0,0,.1-.1,.1-.5,0-.1-.2-.6-.2,0ZM.7,4c0-.3,0-.5,0-.7,0,0-.3,.3-.2,.4,0-.3,.1,.3,.2,.2ZM55,156.9c-.5-.1-.5,.1,0,0h0Zm56.4-32.9c0-.5-.2-1-.2-.5,0-.5,0-.8,0-1.1,0,.4-.1,.9-.2,.5,0,0,0,0,0-.3-.2,0-.4-.4-.4,.6,.1,.4,.2,0,.3-.2,0,.2,.1,.4,.2,.6,0,.1,0,.7,.2,.5,0-.9,0-.1,.2-.2Zm-55.9,33.1h0ZM48.4,.8h0c0-.2-.2-.2-.4-.2,0,0-.2,0-.2,.2,.1,0,.3,0,.6,0Zm39.3,156.4c-.1,.1,.5,.2,.8,.1,0-.1-.3-.1-.8-.1Zm-34.6-.1s0,.1,.2,.1c0,0,.3,0,.3-.1h-.5Zm54.7,1.6c-.1,0-.2,0-.3,0h-.4l-7.2-1.4,3.7,.3h-.4c.3-.2,.6-.3,.2-.4,.7,0,1-.2,1.4-.4,.8,0,1.2,.1,1.4-.1,.7,0-.1,.3,0,.4,.4,0,.6,.1,.8,.2-.1,0-.2,0-.5,0,0,0,.2,.1,.6,.1,.3,0,.6,0,.9,0,0,0,0,0,0,0,.2,0,.3-.2,.4-.3,.2,0,.2,0,.3,0h.2c0,0,.2,0,.3,0,.3-.1-.5-.4-.9-.5-.6,0-.2,.2-.5,.2-.4,0-.4-.1-.4-.2,0,0,0,.1,.3,0,.2,0,.3-.1,.3-.2h-.7l-8.9-.8s0,0,0,0c0,0-.2,0-.1,0h.1c0,.2,0,.4,0,.6-.6,0-.6,0-1.1,0,0-.2,.4-.3,.5-.4,0,0,0-.2-.1-.3l-3.3-.3c-.2,0-.5,.1-.7,.2-.7,0-.8-.2-.6-.3h-1.4c0-.1,0-.2-.2-.2,0,0,0,0,0,0h-.9c.4,0,.6,0,.2,.1-.4,0-.5,0-.5-.2l-3.1,.3c.2,0,1,0,1.4-.2,.1,0,.1,0,.1-.1l-1.9-.4,3.8-.3,3.4,.3h.4l1.7,.2h-.5c.1,0,.3,0,.6,0,0,0,0,0,0,0l5.8,.5,2.9,.3h1.4l.7,.2h.5c0,0,.1,0,.4,0,0,0,0,0,0,0l1.5,.2c0,0,0,0,0-.2h.3v.2h-.3l2.1,.2c-.3-.1-.6-.4-.4-.5,0,0,0-.2,0-.3,.2,.1,.4,.1,.4-.6,.1,.2,.2,.5,.2,1,.1-1,.3-2,.4-3.2-.1,0-.2,0-.4-.2,0-.4,0-.6,.2-.7,.1-.1,.2-.2,.4-.4h0v-5.3h.2l.2-.9,.5,5.2c-.1,1.3-.2,2.4-.3,3.5l-.3,3-1.6-.2c.4,.5,.5,.9-.3,1.2l3.1,.3v-.9c0,.3-.1-.1-.2-.3,0-1.1,.2-.8,.3,0l.2-2.1v-9l-.5-5.3,.4-2.2c0,.3,0,.5,0,.5v-.6s0,0,0,0v-19.8c0,0,0,0-.1,0l.2-2v-14.2l-.8,8.9s0,0,0,.1c0,.3,0,.4-.1,.4l-.7,8.4,.3,3.6-.5,2.6-.2-2.2c-.2-.2-.5,0-.6,.4h0c0-.1,0-.3,0-.5,0,0-.1,0-.2,.2-.2-.2-.4-.2-.5-.8l.2,2.1s0,0,0,0c0,.1,0,.2,0,.3,0,0,0,.2,0,.3,0,.3-.1,.6,0,.8,.2-.1,.2-.2,.2,.6,0,0,0,0,0,0l.3,3.2v.5h0c0,.4,0,.4,0,.7-.1,0,0,1-.1,1.1,0-.3,0-.7,0-1.2l-.3,1.5-.8-8.8v.7s0,0,0,0c0-.5,0-.7,0-.9v-1.2c-.2,.2-.3,.3-.5,.5-.1,0-.2-.3-.2-.5,0-.1-.2-.2-.2-.7,.2-.2,.4,0,.7-.1v-1.4c0-.7,0-.9,0-2,0,0,0,0,0,0h0c0,.1,0,.3,0,.6v.3s0,0,0,0c-.1,.2-.1,.6-.1,1.1h0c-.1,.3-.3,.5-.5,.7,.2-1.3,.3-2.8,.7-2.9v-.3c0,.1-.1,.1-.2-.1,0-.1,0-.2,0-.3,0,.2,0,.3,0,.5,0-.3,0-.6,0-.8,0-.2,.1-.2,.2-.2v.5l.7-8.9v-.3h0v-.5h.1l.3-1.7c0-.4,0-.8-.1-1.3l.2-2.3c0-.3,0-.6,.1-1.1h0v-1.1c.2,.7,.3,1.2,.3,1.8,0,.3,0,.4,0,.7s0,.4,0,.8l.4-2.2-.4,4.7s0,0,0,0c0,.5,0,.8,0,.9l-.8,9.5s0,0,.1,.2v.7c0,0-.1,0-.2,0l-.2,2.3v.5h0c0,.5,0,.7,0,1.1,0,0,.1-.1,.2-.3,0,0,.1-.1,.1-.3,0,0,0,0,0,0,0,0,0-.1,0-.2,0,.8,.2,1.3,.6,1.1,.1,0,0-1.2,.2-1.4,.2,0,.1,.3,.1,.9,0,.4,0,.5,.2,.6v1l-.2-3,2.3-25.8v-31l-.3-3.6,.3-3.6v-5.3c0,.2-.1,.4-.2,.3,0-.4,0-.5,0-.9,0-.4,.2,.2,.3,0v-3.9c0,0,0-.1,0-.2h0V25.2l-.6-6.7v.6c-.4-.1-.4-1.7-.9-1.6,0-.6,.2-.8,.2-1.6,.3-.3,.3,.7,.5,.9l-.8-9h0c0,0,0,0,0,0v-.5l.2-1.3h0c-.1-.6,0-.9,0-1.1,0-.2,.2,0,.2,.4v-.5l.9,8.9s0,0,0,0h0v1.4h.2v.5h0V2.5c0,.2,0,.3,0,.3v-.7c0-.1,.1,0,.2,0l-.2-2.1h-.8s0,0,0,.2V.4c-.1,.2-.1,0-.2,0,0-.1,0-.2,0-.3,0,0,0,0,0-.1h-9.4c.2,0,.5,0,.7,0,.1,.1,0,.2-.3,.3l-3-.3c.1,0,.2,0,.2-.1h-15.7l7.3,.7h0c0,0,.2,0,.3,0l3.6,.3h.2l7,.6c0,0,.2,0,.2,0,.2,0,.2,0,.2,.1l1.7,.2c-.3,.2,.3,.4,0,.5,.4,0,.7,0,.9,0,.1,0,.2,0,.2,0,0,0,0,0,.1,0-.1,0-.1,0-.3-.1-.1,0-.2,0-.4-.1,.1,0,.2,0,.3,0,.2,0,.3,0,.4,0h.3c.3,.2,.6,.3,.9,.4,0,0,.2,0,.4-.1,.5,0,1,.2,1.4,.3h0v.2h0s0,0,0,0c-.4,0-.7,.1-1,0h.2c.2,.1,.3,.1,.5,.2,0,.1,0,.3,0,.4,0,.5,.3,.9,0,1.4h0v-.5c-.1,0-.1,0-.1,0h0c0-.1,0-.2,0-.2v-.3c0-.1,0-.3,0-.5v0h-.2c-.5-.1-1.1-.3-1.8-.4-.4-.1-2.3-.3-3.8-.4,0,0,0-.1-.1-.2-.6,0-.9,0-1.3,0,0,0,0,0,.1,.1l-3.3-.3h-.2c-.2,.1-.3,0-.3,0l-15.9-1.4-5.7,.5-2.6-.5,6.1-.5H48.2l4.6,.5h.4l2.6,.4-3,.3h-.2c0,0-.2,.1-.7,.1,0,0,0-.1,.2-.2h-1.1c0,0,0,0-.2,0-.4,0-1.2,0-1.4-.2,0,0,0,0,0,0L40.3,.1s0,0,0,0c0,0-.2,0-.2,0h-.4c0,0-.1,0-.2-.1h-11.9c.2,0,.4,.1,1,.1,0,.1-1.1,0-1.6,0v-.2h-.5s0,0,0,0c-.2,0-.7,0-.9,0H4.3c.2,0,.4,0,.6,.1C3.3,.3,1.9,.4,.6,.6l.2,1.9c0-.2,0-.3,.2-.2,0,.4,0,.6-.1,.6l.2,1.8v1.4l.2,.6-.2,2.4v-.7c0,.2,0,.6,0,.9,0,0,0,0,0,0,0,.2,0,.7,0,1.1v.5c-.2,.2-.3,.3-.5,.3,0,.2,0,.7-.2,.6,0,.9,0,1.7,.2,2.4v.8L0,20.1s0,0,0,0v9s0,0,0,0h0c0,.1,0,.1,0,.1v12.4c0,.3,0,.7,0,.9,0,0,0,0,0-.1v10.4l.5,5.5c-.2,0-.1-1-.2-1.3-.1,0-.2,.1-.3,0v1.7s0,0,.1,0c0,.4,.2,0,.2,.6,0,.6-.1,.8-.2,1,0,0,0-.2,0-.2,0,0,0,0,0,0v3.4c0,.1,.1,.3,0,.7,0,0,0,0,0,0v31l.4-4.9h0l.3-3.5c0,.1,0,.4,0,.6,.1,0,.2-.4,.2-1,0-.1,0-.2-.1-.1v-1.1c0,.1,0,.2,0,0,0-.7-.2-1.7,0-2.1,0,.3,0,.6,0,.8v-.6c.1,.6,.2,1.3,.3,1l.2-2.4s0,0,0-.1c0-.3,0-.4,0-.4v-1.4c.2-.2,.2-.3,.3-.2l1.1-6.1-1.3,14.8c0,0,0,.2,0,.4h0v-.2l-.2,2.9c.2,.2,.3,.6,.5,.5,0,.6-.2,.7,0,.7,0,.2,0,.4,0,.5,0,1.3-.4-.4-.3-.7,0-.4-.2,.3-.3,0,0,.7,0,.8,0,1.4,0,0-.1,0-.2,0l-.3,3.3,.2,2.7s0,0,0-.1c.1,.1,.2,.4,.2,.9,0,0,0,0,.1-.2,.1,.2,0,.7,0,.9,0,0,0-.2-.1-.2,0,0,0,.3-.1,.2v1.1c.1,0,.1,0,.2,0,0,.4,0,.3,0,.2,0,0,0,0,0,0l.4,4c0,0-.1,0-.2,0l-.4,2.3c0-.2-.1-.3-.2-.4,0-.9-.2-1.1-.2-1.8-.1,0-.2,0-.3,0v27c.2,0,.3,0,.3-.2,0-.3,0-.5,0-.8l.8-4.3c-.2,0-.2-1.3-.5-1.4,0,.6,0,1.1,0,1.4,0,0,0,0,0,0v-2.4h0c.2,.5,.6,.5,.6,2.2v-.7l-.3,4.3h0v.2s0,0,0,0l-.2,2.2c0,.2,.1,.4,.3,.4,0,1-.1,1.5,.1,1.8-.1,.6-.4-.1-.5-.5h0v-.2h0c0-.1,0,0,0,0,0,0,0-.3,0-.3,0-.3-.2,0-.2,.2,0-.4,0-.6,0-.6,0,.1,0,.2,0,.2,0,.5,0,.6,0,1,0,0,0,0,0,.1v4.8s0,0,0,0v2.6s0,0,0,0c0,.4,0,1,.2,1.2h0c0-.2,0-.3,0-.4,0-.5-.1-.1,0-.6,0,0,0,0,0-.1,0,0,.2,.1,.3,.2,0,.3,0,.7,0,1h.1c0,.5-.1,.9-.2,1.3-.2-.3-.5-.8-.5-1.8v11.3H0v1.1H0v.7h0v.9H1.9c.3,0,.6,0,.9,0,0,0,0,0,0,0H11.8c.7-.1,1-.2,1.2-.4l-1.7-.3h.5c0,0,0,0,0-.1h.2c0,0,0,0,0,0,0,0,.2,0,.4,0h0l16.2-1.6,4.4,.8-2.9-.3,2.5,.2c0,0,.1,.1,0,.2-.8,0-1.5-.1-2.3-.2-.1,0-.2-.2-.3-.2l-8.2,.7c.6,0,1.4,.2,1.9,.3v.3c-1.6,0-1.9-.3-2.5-.5,0,0,0,0,0,0l-8.5,.8c.2,0,.3,0,.3,0h4.4s0,0,0,0c-.2,0-.8-.2-.7-.3,.7,0,.5,.2,.7,.2,.1,0,.4,.1,.5,.2h8.1l4-.4,4,.4h2.3c0-.3,.8-.3,1.6-.3,0,.2-.6,.3-1.3,.3h13.8c.5,0,.7,0,1.1,0,0,0,0,0,0,0,.1,0,.3,0,.5,0,0,0,0,0,0,0h11c0,0-.1,0-.1,0,1.1,0,1.2-.2,2.5-.2,0,0,.3,0,.4,.1l2.7-.2c0,0,0-.1,0-.2,1.3,0,1.7-.2,2.9-.2,0,0,0,0,.1,0h.8c.2-.1,.4-.1,.5-.1l4.5-.4c-.4,0-.8-.1-.7-.3,.7,0,1,.2,.7,.3l3.2-.3c.3,0,.6,.1,1.2,.1,.7,.2,1.7-.3,2.2,0-1.5,.2-2.3,0-4,0l2.2,.4h-.9c-.5,0-1,.1-1.2,.2h-.5c0,0-.3,0-.3-.1-.6,0-.8,0-1.3,0-.1,0-.4-.1-.6-.2,0,0,0,0,0,0v.2c0,0,.1,.2,.2,.2h.4l-5.4,.5h5.6c.3,0,.4,0,.6,0h10.2s0,0,0-.1c1,0,1.3,0,1.5,.1h17.7s0,0-.1,0h-.2s0,0,0,0Zm5-3.2c0,.5-.2,.4-.3,0,0-.4,0-.4,0-.8,.2,0,0,.7,.2,.7Zm.7-4.9v.7h-.3c0-.5,.1-.8,.3-.7Zm-1-28.2c0-.9,.1-.6,.3-.5,0,.5-.1,.5-.3,.5Zm-1.1,3.4c.2,0,.3,.3,.3,.9-.2,0-.3-.3-.3-.9Zm1,4.9c0-1.5,.3-1.1,.4-2.2,0-.2-.1-1.4,0-1.9l.5,5.3c-.3,0-.6-.3-.8-1.2Zm-1.8-11.4s0,0,0,0c0,.2,0,.4,0,.7h0c0-.2-.1-.4,0-.7Zm0,1.1s0,0,0,0v.4c0-.1,0-.2,0-.3Zm.3,.7h-.2c0-.4,0-.8,0-.8,0,.1,0,.1,.1,.1v.7Zm.3-1.8c0,.6,.1,.7,0,1.1-.2,.2-.2-1.4,0-1.1Zm.2-2.3c0,1-.3,1.1-.3,2,0,.1-.1,.4-.2,.5,0-.1,0-.2,0-.4,0,0-.1-.2-.2-.2,0-.1,0-.2,0-.1,0-.7,.2-.8,.3-1.6,.2-.1,.3-.5,.5-.2Zm.7-11.5c-.2,0-.2-1.3-.2-2,.5-.4,.4,1.4,.2,2Zm.5-2.5c0,.4,0,.4,0,.7-.1,0,0-1,0-.7Zm.4-1.4h-.3c0-1.1,.3-1.1,.3,0Zm.5-89.7c-.1-.4-.3-.6-.3-1.4,.2,.2,.6,.3,.3,1.4Zm.2-3.8c0,.6-.1,.6-.2,.7,0-.8,.1-1.1,.2-.7ZM105.5,.4c.3,0,1.1,0,1.4,0,0,0-.1-.1,0-.1,.7,0,1,0,1.6,0h0l1.7,.2c-.6,0-1,0-1.3,.2,.6,.2,1.4,0,2,.1-.3,.1-1.1,0-1.2,.1,0,0,0,.2,0,.2h0c-.2,0-.5,.1-.8,.1,0,0,.1-.1,.3-.2l-1.6-.2h-1.1l-1.2-.2c0,0,.2,0,.3,0Zm-8.8,.2c.5,0,.7,0,.7,.2-.5,0-.7,0-.7-.2Zm1.4,.4h0c0,0,0-.1,.2-.2,.7,0,.7,.2,.7,.3-.7,0-.9,0-.9-.1Zm3.6,.4v-.2c.7,0,.7,.2,0,.2Zm7.8,.2c.1,0,.2,0,.2,0,0,0-.1,0-.2,0,0,0,0,0,0,0Zm1.8,1.1c0,0,0-.2,0-.2,0,0,0,.1,0,.2,0,0,0,0,0,0Zm.8-1.2l.3-.9,.2,1.9c0,.1-.1,.3-.1,.5,0-1.1-.3-1-.4-1.5ZM61.7,.4c.4,0,.5,0,1,0h-.9c0,0,0,0,0,0Zm30.8,156.9h-.9c.3,0,.6,0,.9,0Zm11.1-.8c.7,0,.7,.3,.5,.4-.6,0-.4-.2-.5-.4Zm-6.2,.5c0,0-.2,.1-.5,.2-2.6,0-3.3-.6-5.7-.4,0-.1,.3-.2,.6-.3l5.7,.5Zm-15.4-.6c-.4,0-.9,.1-1.6,.1-.1,0-.2,0-.2,0,0,0,0,0,0,0,.7,0,1.2,0,1.9,0Zm-13.6-.2c-.7,0-.6-.3-.2-.3,.8,0,.6,.3,.2,.3Zm12.3-.6c1.2-.2,1.1,.3,0,0h0Zm5.7-.7c-.9,0-1.5,.4-2.5,.1,0,0,.2,0,.3,0l1.9-.2c.1,0,.2,0,.3,0Zm-16.2,0s0,0,0,0c-.4,0-.7,0-1.1-.1-.1,0-.2-.1-.3-.2,.5,0,1.7,0,2.2,0,.1,.2-.3,.3-.8,.3Zm9.1-.3h0l-1.1,.2c-.2-.1-.6-.2-.6-.4,.9,0,1,.2,1.6,.2Zm-3.9,.2c-.6,0-1.1-.3,0-.3,0,.1,.4,.2,0,.3Zm17.6-.7c.2,.2-.4,.2-.5,.3-.5,0-.1-.3,.5-.3Zm5.4,.4c.4,0,1.1,0,.9,.1-.2,0-.5,0-.9,0v-.2Zm.2,.6c0,0,0,0-.2-.1,0-.1,.9-.2,1.2,0,0,0,0,0,.1,0,0,0,0,0,0,0-.3,0-.6,0-1.1,0Zm8.3-1.2c.1,0,.2,0,.2,0h.4c.2,.1,.4,.2,.5,.3h.3c0,.1,0,0,0,0,.3,0,.6,0,.9,.2h-.2c.4,.2,.8,.3,1.2,.4,.1-.2,.3-.5,.4-.8h0c.3,0,.4-.6,.8,0,0,.3,0,.2,0,.4-.1-.1-.1,0-.2,0-.1,0-.1,.3-.2,.4,0,0-.1,0-.1,0,0,0-.1,.3-.2,.3h-.2l-1.3-.2h0c-.2,.1-.4,0-.4,0l-.9-.2h-.7l-.2-.2-3.6-.3h0c-.3,0-.5-.1-.7-.1,0,0,0,0,0,0l-7-.6c.1,.2,0,.4,0,.5-.7,0-.3-.3-1.1-.3,.2,0,.2-.2,.2-.3l-3.9-.3-8.8,.8h-4.1c-.1,.1-.2,.2,.1,.3,.2,0,.4,0,.5,0l-6.2,.5c.5-.2,2.6-.4,1.3-.7-.2,0-.3,0-.5,0-.1,0-.3,0-.6,0l3-.3c0-.2,.3-.4,0-.6,1.3,0,1.4,.3,1.1,.5l14-1.2,6,.5s0,0,0,0c.6,0,1.2,0,1.5,.2l5,.4,2.5,.2h1.3Zm-15,.2c-.6,0,0-.2,0-.2,.6,0,0,.2,0,.2Zm1.1-.3h-.7c0-.1,0-.2,.7-.2v.2Zm-22,.5s0,0,0,0h1.3c-.1-.1-.2,0-.1,0h.1c-.3,0-.7,0-1.3,0Zm-4.2-.7c-.4,0-.4,0-.7,0,0-.1,1,0,.7,0Zm15.6-.8c-1,0,.2-.3,0,0h0Zm11.8-.3c-.5,0-.3-.1-.7-.1,0-.2,.4-.3,1.1-.3,.1,0,.2,0,.5,.1,0,.2-.6,.2-.9,.3Zm6.1-.2c.8,0,.4,.2,.5,.3-.7,0-1-.2-.5-.3Zm-11.1,.1s-.2,0-.2,.1c-.3,0-.4,0-.7-.1,0,0,.2,0,.2-.1,.3,0,.4,0,.7,.1Zm-7.7,0v.2c-.7,0-.7-.2,0-.2Zm24.6,1h.5v.2h-.7c0,0,.2,0,.2-.2Zm3.9-.4s0,0,0,0c0,0,0,0,0,0h0Zm3.2-11c0,.4,0,.4,0,.7,0,0,0-.2-.1-.2h0v-.5h.2Zm-2-2.3l-.2-2,.2-.3c0,1,0,1.4,0,2.3Zm-1.1-5.6c0,.6-.2,1,0,1.4-.2,.6-.3-1.6,0-1.4Zm-.1-5c0,.5,0,.7-.2,.7,0,.5,.2,.6,.4,.7,0,.2-.2,1.3,0,1.1,0,.7,0,1.1-.2,1.1-.1-.7-.2-1.7-.4-2,.1-.8,0-1.6-.3-1.6,0-.7,0-1.1,0-1.6,0-.3,.2-.3,.3-.2-.2,.6,0,1.3,0,2,.1,0,.2-.4,.4-.2Zm0-1.6h-.3c0-.8,0-.8,.2-.9,0,.4,0,.5,0,.9Zm-.9-1.3s0,0,0-.1v.2c0,0-.1,0-.2,0,0-1.3,.3-.1,.5-.7,0,.4-.1,.6-.2,.7Zm1.3-16.2v.6h-.2v-.6c.1,0,.1,0,.2,0Zm-.9-4.2c-.3,.3-.4-.8-.3-1.8,.2,0,.3,.6,.3,1.8Zm-.5,5.8l-.8,8.8,.2,2.5s0,0,0,0c0,.2,0,.4,0,.5v1.3c.2,.2,.1,.7,.3,.6,0,.1,0,.1,0,.1l.3,3.5h.1c0,.4,0,.5-.1,.5l.2,1.8c0,0,0,.2,.1,.2,0,.2,0,.3,0,.3l.6,6.5-.3,1.7c0,.3,0,.6,0,1,.3,0,.5,.5,.6,1.3v1c-.1,.3-.2-.4-.4,.3v.2s0,0,0,0c0,.5,0,.4,.2,.4,.1,.9,.2,1.8,.3,2.2,.1,.6,.3,1.2,.5,1.6l.2,2.7v.4c0,0-.1,0-.2,.3-.1-.7,0-.7,0-1.8-.3-.7-.5-.8-.7-.3l-.6-6.5v-.7s0,0,0,.1l-.8-8.7s0,0,0,.1c0-.3,0-.6,0-.9l-1.1-12.2v-1.3c0,0,0-.4,0-.7,.1,0,.2,0,.2,.1l1-11.2c-.1,.1-.2,.3-.3,0,0-.7,.2-1.5,.3-1.1h0l.2-2.2c0,0,0-.2,0-.3,0,0,0,0,0,0v7.9Zm-.5,24.9c0-.7,.1-.3,.3-.2,0,.4,0,.4,0,.7-.2,.2-.1-.5-.2-.5Zm-.4,.2c0-.7,.1-.6,.2-1.1,0,0,0,.2,.1,.2,0,.4-.1,.9-.3,.9Zm.7,.2c0,0,.1,.3,.2,.2v.7c-.2,.1-.2-.2-.2-.9Zm-.4,2.7c-.2-.3-.2-1.7-.5-1.8,.2-1.3,.9,.7,.5,1.8Zm-.4-6.6v1.1c-.2,.3-.3-1.5,0-1.1Zm.2-.5c.3-.1,.3,1.1,.1,1.4-.1-.3-.2-.7-.1-1.4Zm-.3-.9c0,.4-.2,.8-.3,.4,0-.7,.2-.8,.3-.4Zm.2-.5s0,.2,.1,.2c0,.2,0,.2,0,.5,0,0,0-.2-.1-.2,0-.2,0-.2,0-.5Zm0-1.4v-.7h.2c0,.5,0,.7-.2,.7Zm-.8-13.3c0-.6,0-1,.3-.9,0,.6,0,1-.3,.9Zm.6-3.4c0-.9,.3-.9,.5-.9,0,.7-.3,.9-.5,.9Zm3.3-12.4c0,.1,0,.2,0,.2v-.2Zm0-1.6c0,0,0,0-.1,0v-.7c0,.2,.1,.4,.1,.6Zm.3-1.8c0,.2,0,.4,0,.7-.1,0-.2,0-.2-.2v-.9c.1,0,.2,.1,.3,.3Zm.9-1.7c-.4,.3,0-1.7,0,0h0Zm0-4s0,0,0,0v0Zm.5-2.2v1.1c-.2,0-.2-.3-.2-1.1h.2Zm-.5-1.4l-.2-2.2c0-.6,.1-1.2,.2-1.1,.2,.6,.3,1.6,.3,2.9-.1,0-.2,.2-.3,.4Zm.5-2.9s0,0,0,0v0Zm-1-2.2h0c0-.7,0-.7,.1-.4v.4Zm1.3-1.5c0,.2,0,.4,0,.5-.1-.4-.1-1.3-.1-1.6,0,.2,.1,.6,.2,1Zm.5-1.3h0Zm-1.3-.2h0c0,0,0,0,0,0l-.4,2.4-1.6-18.2h0l-.3-3.1v.3c.2-.4,.2-1.6,.4-1.4,.3,1,.3,2.3,.2,3.9l.2-1.2,.2,2.8c0-.1,0-.2-.1-.3,0,.6,0,.9,.2,.7l.2,2.6c0,0,0,.2,0,.4,0,0,0,.1,0,.2l.4,5c0,0-.1,.1-.1,.5,0,0,0,0,.1-.2l.5,5.5h0Zm-1.3,.8v-.7h.2c0,.6,0,.7-.2,.7Zm-.3-3.4c.2-.3,.2,.6,.1,.9,.2,.6,0,1.4-.2,1.8,0-.2-.1-.6-.2-.7,0-.2,0-.4,0-.7,0-.2,.1-.3,.3-.2,0-.6,0-.6,0-1.1Zm-.6-2.3c.1,0,.3,0,.3,.2,0,.8-.4,.6-.3-.2Zm-.2-9.3h-.1v-.5h.1v.5Zm1.4-5c.1,0,.1,.2,.2,.2,0,.6-.1,.5-.1,.9-.1,0-.1-.6-.1-1.1Zm-.4,1.8h-.2l.2-1c0,.2,.1,.7,0,1Zm0,.7h.2c0,.7-.2,.7-.2,0Zm.4,.7c0,.1,0,.2,0,.2h-.1c0-.1,0-.3,.2-.2Zm.8,7.7h.1v.5h-.1v-.5Zm1.4,7c0,.3,0,.5-.1,.7l-.2-2.7c0-.5,.1-.9,.2-1.2,0,1,.1,1.9,.1,3.2Zm.3-11.3c-.3,.2-.2-.7-.2-1.4,.2,0,.2,.7,.2,1.4Zm-.7,.7c-.1-.2-.2-2,0-1.8,0,.8,0,1.3,0,1.8Zm.2-3.8h0v.5h-.2v-.4h.1Zm.3-.7c0,.4,0,.9,0,.9-.2,.2-.1-1.4,0-.9Zm-1-3.9v.8c0,0-.1,0-.1,0,0-.5,0-.6,0-.9,0,0,0,0,0,.1Zm.2-1.9c0,.3,0,.5-.2,.3,0-.1,0-.2,0-.3,0,0,.2,0,.2,0Zm.9-1.4v.5h-.1v-.5h.1Zm-.4-1.4c-.1,0,0-.8,0-.9,.1,0,0,.8,0,.9Zm-.2-4.2c0,.3,0,.7,0,.9h0c0,0-.1,.1-.1,.3,0,0,0,0,0,0l-.3,3h0l-.4,4.6,.9,10.4c0,0,0,0,0,0,0,.4,0,.6,0,.8l.2,1.9-.5,2.6-1-11.7c0,.2,0,.3,0,.6h.1c0-.1,0-.3,.1-.3v-.5c0,0-.2-.2-.3,.1l-.3-3.9,.4-4.5h0l.4-2.2s0,0,0-.2l.2-1.1c0-.6,0-1.1,.2-1.1h0l.5-2.6-.2,2.7Zm-3.9,6.9v0s0,0,0,0c0-.9,.1-.9,.3-.9,0,.3,.2,.7,.2,1.3,0,0,0,0-.1,0,.2-.9,0-.5-.3-.4Zm1.6-3.3h0c0-.1,0-.2,0-.2v.2Zm-.2-.5h-.1v-.7h.1v.7Zm.6-3.6c-.2,.9-.5-.4-.5-1.4,.3-.2,.5,0,.5,1.4Zm.9-1.7h.1v.5h-.1v-.5Zm-1.9,2.3v.3c0,.4-.4,.3-.4,0,0-.9,.3-.6,.4-.2Zm1.1,.3h0c0-.2,.1-.5,.2-.7,0,0,0,.2,.1,.2,0,.6,0,1-.3,.9,0-.2,0-.3,0-.4Zm-.6,1.3c0-.6,0-.9,.1-1.1,0,.6,0,1.2-.1,1.1Zm.5-.7h0v.7h0v-.7Zm2-5.4c0-.6,0-.9,.1-1.1,0,.6,0,.9-.1,1.1Zm-.9-7.5v1.7c-.2-1,0-.9,0-1.7h0Zm1.4-.7c0,.2,0,.4,0,.5v-.5Zm-3.1-1.3v1.4h-.2v.3s0,0,0,0l-.8,9.4-.3,1.4v1.6l-.8,8.8,.8,9.3s0,0,0,0v.9l1.4,14.3s0,0,.1,0c0,.4,0,.5,0,.9h-.1l.2,2.1-.5,2.6-2.7-29.9,2.7-30.2-.6-7.2c0,0,0-.1,0-.2h0v-.7l.4-2.6,.5,6c0,.1-.1,.2-.3,0v.3s0,0,0,0h.2s0,0,.1,0l.4,4.3-.6,6.7s0,0,0,0v.7s0,0,0,0Zm-.5,49.5s0,0,0,0v.8c0,.3-.1,.3-.2,0,0-.6,.1-.5,.1-.9Zm-.8,.2v-.9c.2-.4,0,.8,.2,.7,0,.3-.1,.2-.2,.2Zm-1.2-16.5c0,.5,0,.6,0,.9-.2,0-.2-.4-.2-1.1,.2-.2,.1,.3,.3,.2Zm-.6-8.1c0-.2,0-.7-.1-1.1h.2c0,.5,0,.9,0,1.1Zm.3-11.3v-.7c.1,0,.1,.2,.2,.2,0,.7-.1,.4-.2,.5Zm.7-5.9c-.1,0,0-1,0-.7,0,.4,0,.4,0,.7Zm.9-10.4c0,.4,0,.5-.2,.5,0-.7,.1-.4,.2-.5Zm-.5-12.7c.1,0,.2,.3,.3,.5v.6c-.1,0-.2-.7-.3-1.1Zm-.6-.9c.1,0,.2,.3,.2,.9-.2,.2-.2-.4-.2-.9Zm2.1-1.1h-.2c0-.5,0-.6,0-.9,0,0,.1,.4,.1,.9Zm.2-1.6c.1-.7,.3,.3,.5,.2,0,.5,0,.6,0,.9-.2-.3-.3-.8-.4-1.1Zm.4,9.3h-.1v-.5h.1v.5Zm.6-.2v.7c0,.4-.3,0-.3,.5-.1-.4,0-1.5,.3-1.1Zm.2,1.8c0,.4-.1,1-.3,1.1,0-.6,0-1.1,0-1.4,.1,0,.1,.2,.2,.2Zm-.8,6.6v.7c0,0,0-.2-.2-.2v-.5h.2Zm2.2-12.9h.4c-.1,1.8-.6,.7-.9,.5,0-1.2,.2-1.3,.3-.9-.2-.2,0-1-.2-.9,.1-1.3,.5,.8,.3,1.4Zm-.4-3.2c.2,.7,0,1.5-.2,1.6,0-.2,0-.4-.1-.5,0-.9,.1-1.2,.3-1.1Zm-.4-1.8h-.2c0-.5,0-.7,.2-.7v.7Zm.1-2.3v.5h-.1v-.5h.1Zm0-2.3c0,.9-.2,.9-.1,2-.3,0-.1-2.2,.1-2Zm-1-1.5v.8h.1c0,.2,0,.3,0,.4l.3,3.4v0c0,.1,0,.2,0,.4l.2,1.9h.2v.7h-.1l.9,9.7-.4,2.3c0,.4,0,.8-.1,.8l-.6,3.1,.2-2.5s0,.1,0,.1c0-.3,0-.6,0-.8l.2-2.5-.8-9.3h0v-.7h0l-.5-5.2,.4-1.9c-.2-.3-.6-.2-.6-1.6,.2-1,.3,.2,.4,.4,0,.2,.2,.4,.3,.7v-.2Zm-.6,1.4s0,0,0,0c0,.2,0,.4,0,.6v0c0,.3,0,.5,0,.7,0,0,0,0,0,.1,0-.1-.1-.3-.1-.5,0-.3,0-.6,.1-.8,0,0,0,0,0,0v-.2Zm.4-2.8v.2c-.1-.3-.4,0-.4-1.1,0,.2,.3,.1,.3,.5v.4Zm1.2-1.2c0,.2,0,.4,0,.7-.1,0,0-.8,0-1.1,0,0,0,0,0,0v.4Zm-2.5-.6v.9c0,0,0-.2-.1-.2,0-.3,0-.5,0-.7h.1Zm-.4-2.5c0,0,0,.1,0,.2,0,0,0,0,0,0v-.3h0Zm1.2-1.5v.4h-.1c0-.3,0-.4,.1-.4Zm-2.3-.4c-.3,0-.3-.2,0-.4,0,0,.2,.1,0,.4Zm-1.2-.8h-.3v-.2c0,0,.2,0,.2,0,0,0,0,0,0,0,0,0,0,0,.1,0,0,0,0,0,0,.1Zm1-.1h0c0-.1,0-.1,.1-.2,.2,0,0,.3-.2,.2Zm-17.4-.9h-.3c.1,0,.2,0,.3,0Zm6,.5c.4,0,.9,0,1.1,0l7.5,.7h1.4c0,.1,.2,.1,.2,.1h0c.2,0,.3,.1,.5,.2,.3,.1,.5,.2,.7,.3,0,0,0-.1,.1-.2,0,0,0,0,0,0,0,0,0,.1,0,.2,0,0,0,0,0,0,0,0,.1,.2,.2,.3,0,0,.1,0,.1,0,0,0,0,0,0,0,0,.2,.2,.4,.3,.7h0v1.2l.2,1.4v4.2c.1,.3,.3,.9,.3,1.1,0,.6,0,1.2,0,1.4,0,0,.1,.3,.1,.4,.2,1,0,2.5,0,3.6-.1-.2-.2-.5-.3-.9v-1.3c0-.3,0-1.2,0-1.4,0-.2,0-.4-.1-.5v1.4l-.4-4.5h0c0,0,0-.1,0-.2l-.3-3.6s0-.2,0-.3v-1.6l-.2-.2h0v-.2c0,0,0,0,0,0-.2,0-.2-.1-.2-.2,0,0,0,0,0,0-.1-.2-.2-.2-.4-.2h0c0-.1-.1-.3-.4-.5h-.1c0,0,0,0-.3-.1h-1.3l-2.6-.3-10.4-.9c-.1,.1-.4,.2-.4,.3-.8,0-.2-.2-.3-.4l-4.5-.4h0c0,0-.1,0,0,0h-.4l-1.5-.3c.9,0,1.2-.1,1.4-.3-.2,0-.7,0-1.1,0,.2,.2-.5,.2-.4,.3l-3.4-.6h1.2l13.8,1.1Zm12,12.8c0,.9,0,1.5,0,2.5-.2-.4-.5-2.3,0-2.5Zm-.7,.7c.1-.1,0,.4,.2,.5,0,.6-.2,0-.2-.5Zm-.3-9.7c.2-.2,.2,1.1,0,.9v-.9Zm-.4,.9h-.1v-.5h.1v.5Zm-6.4-2.3c-.2,0-.2,0-.5,0h0c.5-.1,.4,0,.5,0Zm-1.4-.4h.7v.2c-.8,0-.7,0-.7-.2Zm-1.6-.6c.7,0,.7,0,1.4,0,.2,.2-1.6,.2-1.4,0Zm3.2,0h.9c0,.1,0,.2-.7,.2,0,0-.3-.1-.2-.2Zm-8.4,.1c0,.2-.3,.1-.9,.1,0,0,.4-.1,.9-.1Zm-24.9,0v-.2c.5,0,.6,0,.9,0,0,0-.4,.1-.9,.1Zm2.3-.1c.8,0,1.6,.1,1.6,.4-.7,0-1.4-.2-1.6-.4Zm-4.3,.1c-.1,0-.2,0-.2-.2,.2,0,.5,0,.9,0,0,.1,0,.2-.7,.2Zm-13.1,.8l-6.2-.6c-.1,0-.2,0-.3,0,.2,.2-.2,.2-.5,.3-1.1-.1-.5-.3,.1-.4l-10-.9h8l8.8,.8h.4c0,0,0-.1,0-.1,.2,0,.5,0,.7,0l13.6-1.2h.4c0,0,.2,0,.3,0h1.1c-.1,.1-.2,.2-.5,.3l1.3,.2-17.3,1.5Zm-13.7-.5c.1-.1,1.6-.1,1.1,.1-.7,0-.7,0-1.1-.1Zm-9.9-.4v-.3c.7,0,.7,.4,0,.3Zm-9.7-.9c.6-.1,2,.2,1.6,.3-.9,0-1-.2-1.6-.3Zm-3.6,.4c0,.2,0,.4-.9,.4,0-.2-.2-.4,.2-.5,.4,0,.4,0,.7,0Zm2.3-.3c-.2-.2,1.1-.2,.9,0-.6,0-.5,0-.9,0Zm30.3,0c0,0,.3-.1,.7-.1,0,0-.3,.1-.7,.1Zm7.5-.1c1.3,0-.8,.3,0,0h0Zm-25.9,.2h-1.5c0,0-.2,0-.2-.1h2.2c-.1,0-.3,0-.5,.1Zm22.3,0c0,.3-1.8,.3-1.6,0,.6,0,1.3,0,1.6,0Zm2-.3h0Zm20.5-.2c0,0,0,.1-.2,.2h-1c-.5,0,0-.2,1.2-.2Zm-2.5-.4h0c.6,0,1.7,0,1.4,.1-.8,0-1.3,0-1.4-.1Zm-11.4,.1h-.5v-.2c.3,0,.4,0,.7,.1,0,0,0,0-.2,0Zm2.3-.2c-.2,0-.2,0-.5,0,0,0,.2,0,.2-.1,.2,0,.2,0,.5,0,0,0-.2,0-.2,.1Zm-15.4-1c0,.1,0,.2-.7,.2v-.2h.7Zm6.8-.4h0Zm-9-.4c-.7,0-1.1,0-1.1-.2,.8,0,1.3,0,1.1,.2Zm-5.9,0c0,0-.2,0-.2,0,0,0,.2,0,.3,0,0,0,.1,0,.1,0,0,0-.1,0-.2,0Zm-8.1-.4c-.2,0-.2,0-.5,0h0c.5-.1,.4,0,.5,0ZM25.8,0l6.5,.6c.4-.1,.6,0,1.1,0,0,0,0,0,0,0l6.8,.6s0,0,0,0h.5l12.1,1.2,7.2-.6s0,0,0,0h.3l2.6,.5-10.2,.9-2-.2c0,.2-.3,.3-1.1,.3,0-.2,0-.3,.3-.3l-6.9-.6c-.2,0-.6,0-.7,0l-4.4-.4s0,0,0,0c-.2,0-.2,0-.4,0,0,0,0,0,0,0l-4.5-.4L25.8,0Zm.7,2.7h-.1c-.3-.1-.2-.4,.9-.3-.2,.1-.2,.2-.5,.3,0,0-.2,0-.3,0Zm6.9-.1h0Zm-26.4-.1c0-.1-.8,0-.9-.1-.2-.2,.4-.2,.5-.3,1.4,.1,.6,1.1-.7,.9,.2-.2,.9-.3,1.1-.5Zm-3.4,.3c0,0-.2,0-.2-.2,0,0,.3,0,.5,0,0,0,0,.2-.3,.2Zm7.4-.3c0-.4,.6-.6,1.4-.8,.9,0,1.3,.1,2,.2-.3,.2-.8,.3-1.8,.5-.5,0-.9,.2-1.6,.2Zm-1.1-.6c-.6,0,.4-.2,.9-.2,.2,.2-.8,.1-.9,.2Zm11.3-.1c1.1,.2,.3,.4-.7,.5,0-.2-.3-.5,.7-.5Zm9.3,.2c-.2,0-.3,0-.5,0h.2c.2,0,.2,0,.3,0Zm-13-1.1c.2,0,.5-.1,.8-.2h0c-.3,.2-.6,.2-.8,.2Zm-1-.3c1,0,.9,.1,1.8,0h0l-1.4,.2c-.2,0-.4-.1-.4-.2ZM2.5,6.6v-.9l-.2-.5-.2-1-.3-2.4,1.1-.2c0,0,.1,0,.2,0,.1,0,.2,0,.2,0l2.4-.3c.2,0,.5,0,.8,0,0,0,0,0-.1-.1l2.4-.2c0,0,.1,0,.1,0h.4l2,.4c.3-.1,.6-.2,1.2-.3,.5,.1,.4,.2,.1,.3h-.8c0,.2,0,.2-.2,.3-.4,0-.8,0-.9-.1l-4.9,.4c-.1,0-.3,0-.4,0-.1,0-.2,0-.2,.1-.9,.1-1.7,.3-2.4,.4,0,0,0,0-.2,0,0,0,0,0,0,.1h-.2c.1,1,.3,1.8,.4,2.5,0,.2-.2,.4-.3,.6l-.3,1.4v-.5ZM.6,12.3c-.1-.5,.1-.5,0,0H.6Zm1.3,1.9l.5-5.2s0,0,0,0c0-.8,0-1.1,.2-1.1,.2,.7,0,1.4,0,2.2,.1,0,.2,.3,.3,.7l-.2,2.2c0,0-.1,0-.2,.3-.1-.5,0-1.8-.2-1.8-.2,.6,0,3.2-.2,3.2,0-.2-.1-.4-.2-.5Zm1.1-1.2s0,0,0,0c0,.2,0,.3,0,.5,0,.1-.1,.1-.1,0,0-.3,.2,0,.2-.5Zm-.5,2.1h0Zm-.2,.7c-.3,.1,.2,1.3,0,1.4-.2-.4-.1-2.5,0-1.4Zm-.7,2.2v-1.1h.1v1.1h-.1Zm-.3,3.8h0c0-.2,0-.3-.1-.3v-.6s0,0,0,.1c0-.5-.1-.5,0-1.1h0v.3c.1,0,.2,.8,.3,1.1,0,.3,.3-.2,.2,.7-.1,0-.2-.1-.3-.2Zm-.3,3.1s0,0,.1,.2c0,0,0,0,0,0,0,.4,0,1.2,.2,1.1,0-.2,0-.5,0-.7,0,.4,.1,.8,.2,1.2h0c-.3,.7-.4-.5-.4-1.8Zm2.1,0c0,.1,0,.2,0,.3,0-.3,.1-.5,0-.6l.4-2.3h0v-1.6c-.2,.2-.3,.9-.5,1.3l.2-2.7c0,.4,0,.8,0,1.1,.1-.4,0-1.4,0-1.9l1-11.7v-.9c-.1,0-.1-.1-.2-.2,0-.1-.1-.3-.2-.5-.1-.3-.2-.8-.3-1.2,.3-.1,.7-.3,1.2-.4h.6v-.2c.1,0,.1,0,.3,0l2.1-.2,8.5-.8,2.6,.5-10.1,.9s0,0,0,0c-.4,0-.6,0-.7,.1,0,0-.1,0-.2,0l-1.7,.2h-.6c0,0,0,0,0,0h-.2c-.3,.2-.5,.3-.7,.4,0,0,0,.1,0,.1,0,0,0,0-.1,0,0,0,0,0-.1,0,.1,.3,.2,.6,.3,.8,0,.1,.1,.2,.2,.3,0,0,0,0,0,.1v.9L3.1,30.8c0,.2,0,.4,0,.7,0,.2-.1,.2-.2,.1l-.5,5.2,.3,3.6c0-.1,0-.2,.1-.1,0,.4,0,.5,0,.9,0,0,0,0-.1,0l.6,6.9-.5,2.6-.5-5.5s0-.1,0-.4c0-.2,0-.4,0-.5,0,.1,0,.2,0,.3l-.7-7.7,.9-9.6,.5-2.6ZM5.5,5.5c-.2-.1-.3-.3-.3-.3,.2,.3,.2,.2,.4,.4h0c0,0-.2-.2-.1,0Zm-.4,13.2c0,.9-.4,.5-.6,.5v-.7c.2-.1,.4,.2,.6,.2Zm-.9,.7c0,0,0,.4,.2,.5,0,.9-.3,.1-.2-.5Zm-.8,9.9c.1,.1,.2,.6,.3,.9-.1,.7-.4-.2-.3-.9Zm-.4,7.5c0,0,0,.6,0,.9-.1,0-.1-.6,0-.9Zm.5,7.2c0,.3-.1,.2-.2,.2,0-.8,.2-.4,.2-.2Zm.2,2.3c0,.5-.1,.5-.3,.5v-.7c.1,0,.2,0,.3,.2Zm.8,2v.7c-.1,.3-.4-.2-.3,.9-.1,0-.2,0-.3-.2v-.7c.2,0,.4-1.3,.6-.7Zm-1.9,.2h-.2c0-.5,0-.7,.2-.7v.7Zm-1.2-2.5c.1,0,.2,.3,.2,.9-.1,0-.2-.3-.2-.9Zm.5-15.1c0,.2,.2,.5,.1,1.1-.1,0-.1-.2-.2-.2v2c-.4-.2-.5-1.2-.6-2.7v-.2h0c0,.8,.1,1.4,.2,1.9l.4-1.9Zm-1.5-1.1v-.7c.1,0,.1,0,.1-.3,.2,.3,.4,1,.5,1.5l-.3,3.8c-.2,0-.3,.3-.5,.4,0-1.6,.2-2.8,.2-4.7Zm.6,6.5c0,.4-.1,.6-.2,.7l.2-.8s0,0,0,0Zm-.9,4.3v-.6h.1c0,0,.1,0,.1-.2,0-.6,0-.7-.2-1,0-.6,0-1.1,0-1.7v-.2c.1-.1,.2-.2,.2-.3,0,.8,0,1.3,0,1.8v-.3l.3,3v.2s0,0,0,0c0,.2,0,.4,0,.5l.8,8.8s0,0,0,0v.3s0,0,0,.1l.2,2.6h0c0,.2,0,.5,0,.7h.2v.9l-.4,2.6-.3-3.5h.1c0-.2,0-.4-.2-.4L.2,40.6Zm2.1,14.2h0Zm-2,0c-.1-.5,0-.6,0-1.4,.2-.1,.2,.5,.2,1.1,0,0,0,0,0,0,0,0,0,.2,0,.2h-.1Zm.6,2.9c0-.4,0-.4,0-.7,0,.2,.2,.2,.2,.9-.1,0-.1-.2-.2-.2Zm-.3,2.2v-.5h0v.4h0Zm1,.9v-.7h.1v.7h-.1Zm.7,2.5c0-1.8,.2-2.4,.5-2.7l.3,3.7c0,.2-.2,.2-.2-.3,.2-.2,.1-1.4-.1-1.1,0,.5,0,1.3,0,1.4,0-.7-.2-1-.4-1.1Zm.3,4c0,0-.1,0-.2-.2v-1c.1,.1,.1,.3,.1,.3v-.6h0c.2,0,.3,.5,.3,1.7,0,.4-.2,.2-.2,.4v-.7Zm-.5-.7s0-.2,0-.3c0,0,0,.2,0,.3,0,0,0,0,0,0Zm1.2-1.8h0c0,.3,0,.6,0,1,0,0,0,0,0,0v-1Zm.8,.9c-.1-.7-.2-1.9-.2-2.7v-.5c.2,.6,.4,1.3,.5,2.2,0,.4-.1,1-.3,.9Zm-.6-1.8h0v-.5h.1v.2c0,0,0,.1,0,.2Zm-3,.7v.2h0v-.2Zm0,7.6c0-.2,.2-.4,.2-.7,0-1.2-.2-.3-.1-1.4,.1,0,.2-.2,.3-.7-.2-.5,0-1.2,0-2h0c.1-.6,.1-1.5,.2-2.1,0-.3,0-.7-.1-1,0-.1,0-.2,.1-.2v.4c0,.3,.1,.6,.1,.8h0l.2,1.7c0,.6-.2-.7-.3,.3-.1,.7,0,1.2,0,1.9h0v1.9c-.1,0,0,0,0,0,0,.1,0,.3,0,.5v.2c0,.1,0,.2,0,.1h0l-.2,1.7c-.2,0-.3,0-.4-1.3Zm2.1-3.7h0Zm-.1,4.8c0-.2,0-.4,0-.5,0,0,0-.2,0-.3,0-.6,0-1,0-1.3,0-.4,.1-.7,.2-1.1h0c0,.2,0,.5,0,1.1,0,1.2-.3,1.6-.3,2.2Zm.6-.6c0,0,0,.4,.1,.5,0,.3-.1,.2-.2,.2v-.7Zm-.9-2.4h0Zm1.7-.5c.3,0,.5,1.2,.4,2.3-.3,0-.4-1-.4-2.3Zm-2.1,9.3c0,.3,0,.5,0,.7,0,0-.1,0-.2,0v-.7c0,0,0,.2,.1,.2v-.2Zm-.6-1.8c0-.4,0-.9,0-1.3,0,.2,.2,.3,.3,.3,0,.2,0,.4,0,.5,0,.1,0,.2,0,.3,0,0,0,0,0,0h0v.3c-.1,0-.2,0-.2-.2Zm1-.7c0,0,.2,0,.1,.7-.1,0-.2,0-.3,0v-.2h0c0-.7,0-.7,0-1.4,0,0,.1,.1,.2,.2l.2-2.7c0,1-.2,2.3-.2,3.4Zm.8,1.2c0,0,.1,.3,.1,.7-.1,.1-.1-.3-.1-.7Zm0,7.2s-.2,.4-.2,.5c-.2-.1,0-.8,.2-.5Zm-.9,3.8c-.1-.2-.3-.3-.3-.7,0-1.3,.5,.1,.6,.5,0,.2,0,.7-.1,.7-.1,0-.1-.4-.2-.5Zm0,4.3c0-.5,.3-.7,.3,.2-.1,.5-.2,0-.3-.2Zm.4-.3v.2s0,0,0,0c0,0,0,0,0-.1Zm-.5,2.1c-.2-.3,0-1,.1-.5,0,.1,0,.5-.1,.5Zm-1.1,2.3c0-.5,.3-.7,.3,.2-.1,0-.1-.4-.3-.2Zm1.1,.3v-.7c0,0,.1-.2,.1-.5h0l.6-6.8c-.1,0-.2,0-.3-.2,.1-.3,.2-.6,.3-.7h0l.5-5.1c0-.2,0-.5,0-.8,0,0,.1,0,.1,.2l.4-4.3c0,0,.1-.2,.2-.5v-.8c0,.2,0,.7-.1,1l.7-7.6c0-.2,0-.4-.1-.6,0-.6,0-.4,.2-.4h0c0-.6-.2-.8-.3-1.1,0-.6,0-1.1-.1-1.4,0-.7,.1,.2,.2,0,0,.6,0,.6,0,1.1,0,.3,.1,.4,.2,.4v-1.4l-.5-6.9h0c0,.3-.1,.5-.2,.6v-.6c-.1,0-.2-.3-.2-.7h0c0-.2,.2-.4,.1-1,0,.2,.1,.4,.2,.6l-.2-1.8c0-.2,0-.3,0-.4v-6.8l.8,9.3c.2,.4,.3,.7,.5,1.1,.1-.3,.2-.9,.4-.7,0,.5-.2,.3-.3,.5,0,.1,0,1-.3,.7,0,.3,0,.5-.1,.7l.3,3.8c0,.1,0,.3,0,.4v1l-2.6,30.2h0c0,0,0,.1,0,.1v.4c0-.2,0,.6,0,.5,0,0,0-.3,0-.4v.5s0,.1,0,.3c0,0,0,0,0,0v.3l-.5,2.6-.4-4.3Zm2.8-44.4c0,.1,0,.2,.2,.2,0,.4,0,.5,0,.9-.1,0-.2,0-.3-.2,0-.9,.2,0,.2-.9Zm.6,12.4c0-.4,0-.5,0-.9,.2-.3,.3,1,0,.9Zm-.8,12.9h.1v.5h-.1v-.5Zm0,3.4c-.1-.5,0-.9,0-1.6,.2,.2,.2-.6,.3-.5,0,.2,0,.2,.1,.2,0,.5,0,.5-.1,.7,0,0,0,.8-.1,.7-.1-.5,0,.6-.2,.5Zm-.1,5.2v-.9c.2,.2,.2-.2,.3-.2,.1,.4,0,.7,.1,.9-.1,.1-.2-.3-.4,.2Zm-.6,3.6v-.9c.2-.2,.2,1.1,0,.9Zm-.9,4.5c0-.7,.4-1,.4-.2,0,1.1-.3,.5-.4,.2Zm.7,0s0,0,0,0c0,.2,0,.5,0,.9h-.1c0-.5,0-.6,0-.9Zm-.1,5.5s0,0,0,0c0,0,0,.2,0,.2v-.2Zm-1.9,4.7c0-.5,0-.8,.1-.9,0-.5-.2-.4-.2-1.4,.2,.3,.3,.6,.3,1.6h0l-.2,1.2c0-.2,0-.4,0-.5Zm.3-.4h0v0Zm1.1,0c.1,0,.2,0,.3,.4,0,1.2,0,1.7-.3,1.8,0-.8-.1-1.5,0-2.2Zm.4,1.4s0,0,.1,0v1c0,0-.1-.3-.1-1.1Zm-.2,2.9c0,.2,0,.3-.1,.2v-1.2c0-.2,.1,0,.1,.9Zm-1.7,0c.1,0,.2-.2,.2-.5v.6c0,.2-.2,.2-.2-.1Zm.7,4.8c0-.4-.2-.7-.3-.8v-1.4c0-.3,.1-.3,.2-.3,0,0,0,0,0,0v.5c.1-.3,.3,0,.4,.3,0,.2,0,.4,0,.9,0,.6,0,.7,0,.7,0,0,0,.2-.1,.3v-.2Zm1.2,3.7v-.4h.1v.4h-.1ZM0,121.9c0-.1,0-.2,.1-.2v.7c0,0,0,.2,0,.2v-.7Zm.6,1.3v-1.4h0v1.4h0Zm-.3,2.1v-1.3c0,.2,0,.6,0,1.3,0,0,0,0,0,0Zm.2-.3c.1-.5,.3-.5,.2,.7-.1,0-.2-.3-.2-.7Zm1.4,4.5s0,0,0,0v-.3c0,0,.1,.2,.2,0,0,.9-.1,.6-.2,.3Zm-1.6,8.9H.3Zm.9,0c.1,0,.2,0,.2,.7,0-.4-.3,0-.2-.7Zm-.8,13.6l.6-6.8h0v-1l.6-6.5s0,0,0,0c0-.1,0-.3,0-.5l.4-4.4c0,0-.1,0-.2,0-.2,.1-.2,.9-.4,.9,0-.4-.2-.6-.2-1.4,.2-.2,.2,.4,.3,.2,.2,0,.3-.4,.3-.9,0,0,0,.1,.2,.2l.4-4.4-.3-3.7c0-.1,0-.3,0-.5,0,0,0,0,0,0v-.2l.6-3.5c0,0,.2,0,.3,.2-.1,1,.2,2-.1,2.5-.2,0-.1-.8-.2-1.1,0,0-.1,0-.2-.2l.2,2c-.2,.3-.4,.8-.3,2,.1,0,.1-.6,.2-1.1,0-.2,.1-.4,.2-.6l.4,4c.1,.3,.2,.7,.3,1.2,0,.3-.2,.9,0,.9-.2,.7-.1-1.1-.3-1.5l-.4,4.7c0,0,.2,0,.3,.2,0,1.2,0,1.8-.2,2.5,0,.5,.1,.4,.2,.9,.2-.2,.2-.9,.5-.7,0,.7-.1,1.3-.1,2.3-.3,.2-.2-.9-.4-.9-.3,.5,0,1.4,.1,2-.2,.5-.3,0-.3-1.1h-.6l-.7,7.5h-.2v.5c-.2-.2-.3,.4-.4,1,0,.1,.1,.3,.2,.3,0-.3,.1-.8,.1-.5,0,.3,0,.7,0,.9h0c0,.2,0,.3-.2,0,0,.6,0,1.7,0,2.6h0v1.4c0,0,0-.1,0-.4,0-.2,0-.6,0-.5,0-.2,0-.3,.1-.4,0,0,0,.2,0,.4,0,.5,0,.7,0,1,0,0-.1,.1-.2,.2v.3H.4Zm3.2-32.3c.2,0,.3,.4,.3,1.1-.2,0-.4-.2-.3-1.1Zm0,6.6c0,.3-.1,.2-.2,.2,0-.5,.1-.5,.2-.2Zm0,.5h.2c.1,.5,0,1.4,0,1.8,0-.5-.2-1-.2-1.8Zm.3,3.8c0,0,0-.6,0-.7,.1-.2,.1,.8,0,.7Zm-.1,1.6c0,0,0,.2,.2,.2v.5c0,0,0-.2-.2-.2v-.5Zm0,13c.1,.2,.2,.4,.2,1.3,0,0-.2,0-.2-.2v-1Zm-1.6,2.7c0,0,.1,.4,0,.4,0-.1,0-.2,0-.4Zm.5,.7c0,.2,0,.5,0,.9,0,0-.1,0-.1,.4-.1,0-.2-.2-.2-.5,0,0,.1,.1,.2,.4v-1.1Zm-1,2.8h0c0,0,0,.1,0,.2,0,0,0-.1,0-.2Zm-1.2,1.3v-.2c.3,0,.5,0,.7,.1h0c-.2,.2-.5,.1-.7,.1Zm3.5-.8c0,.1,0,.2,0,.3,0,0,0,0,0,0,0,.1,0,.3,.1,.4-.1,0-.2,0-.3,0,0-.2,0-.7,0-.8Zm.5,.4c0,0,.2,0,.4,0v.3c-.1,0-.3,0-.4,0v-.3Zm9-.2H5.7v-3.1s0,0,0,0c0-.1,0-.2,0-.2v-4.1l-.7,7.5h-.7l.6-6.8c-.2,0-.3-.7-.4-.9,0-.3,0-.6,0-1.1,.2-.1,.3-.8,.4-.9,0,.8,0,.9,0,1.5l.4-4.4c-.1,0-.4-.5-.7-.3-.1,0,0,.6-.2,.5,0,.7,.2,.4,.1,1.1-.1,.5-.3,0-.4-.2v-1.4h.2c-.1,0,0-.7-.1-1.1,0,0,0,0,0,0l-.6,6.5v-4.4l-.3,1.4c0,.2,0,.4,.1,.7,0,0,0,.6-.1,.7,0-.5,0-.8,0-1l-.3,1.6,.3-3.3c0-.4,0-.8-.1-1,0-.5,0-.3,.1-.2,0,.2,0,.3,0,.5l.7-8.3v.2s0,0,0,0c0-.2,0-.2,0-.3l.3-3.3-.2-1.9c0,.1-.1,.2-.2,0,0-.9,.1-.7,.1-1.5l-.7-8.3,.2-1.3h0c0-.5-.2-.8-.3-1-.1-1.2-.1-2.8-.2-4.3,0-.4,.2-.7,.4-.8,0,0,0,0,0,0,0,0,0,0,0,0v-1.8s0,0,0,0c0,.4,0,1.1,.1,.9,0,.9,0,1.5-.3,1.7l.9,10v-.2c0,.2,.1,.3,.3,.2v.9c0,0-.2,0-.2-.2l.7,7.5v1.8h-.2l-.3,3.3v-1c.2,0,.2-.3,.3-.3,.1,0,.2,.5,.4,.5,0,1-.4,1-.5,.5,0,0,0,.5,0,.5,0,.6,0,0-.2,0l-.4,4.1s0,0,0-.2c.2,.2,.4,.8,.5,1.6,.2,.2,.4,.4,.5,.7l.2-2.5v-12.2c0-.2,0-.4,0-.3,0-.3,0-.2,0,0v-5.1l-.2-2.6s0,0,0,0c-.2-.2-.2,.6-.3,.5,0-.2,0-.6-.1-.7,0-1,.3-1.4,.2-1.8,0-.1,0-.1,.1,0l-1.5-16.6,.2-2.3v.6c-.2-.3-.2-.9-.3-1.5v-.5h0c0-.3,0-.8,0-1.3,.3,0,.3,1.1,.4,1.8h0l1.5-16.3c0,.2-.1,.2-.2-.2,0-.5,.1-.5,.3-.5v-18.7c0,0-.2,0-.4,.2,.1-.5,.1-1.1-.1-.7,0-1.4-.2-1.4-.4-1.8,0-.5,0-1.3,.2-1.6,.2,.2,0,.5,.1,.9h.4c0,.5,0,1.3,.2,1.8,0,0,0,0,0,0l-1.8-20.4,.2-2.8c0-.1-.1-.3-.1-.8,0,0,.1,.2,.2,.3l.9-10c-.2,0-.3-.5-.3-1.3,.2,.2,.2-.6,.3-.9,0,.2,.1,.2,.2,.3l.2-2.6c0-.1,0-.4,0-.6,0,0,0,.1,0,.2l.3-3.1V5.6h0c0-.1,0-.2,0-.4h0c0,0,0-.1,0-.2,0,0,0,0,0,0,0,0,0,.2,0,.2h0s0,0,0,0h1.4l1.8-.3,3.6-.3c0-.1,0-.2,.2-.2,.4,0,.5,.1,.3,.2l9.4-.8,4.5,.4s0,0-.2,0c0-.1,1,0,.7,0h-.3l6.2,.6c.2-.1,.4-.3,0-.4,.1-.2,.5,0,.9,0,0,.2-.2,.3-.4,.4l10,.9h9.9c.3,0,.6-.1,.8-.2h.9c0,0-.2,.1-.3,.2h3.5c-.2-.1,.3-.3,.9-.3,0,.1-.1,.2-.4,.3h2.4l8.4-.7h.7c0,0,0,0,0,0l12.4-1.1,21.4,1.9h2.7v2.6l.2,2.1h0v.2l.2,2.1c0-.1,.1-.2,.3,0,0,.6,0,1.2-.1,1.7l.5,5.5s0,0,0,0c0,0,0,.1,0,.2l.9,9.6h0s0,0,.1,.2c0,.4-.1,.6-.2,.6l-.5,5.5c0,0,.2,0,.2-.1,0,1.1-.1,1-.3,.7v-.4l-.3,3.5c0,.3,0,.7,0,1.1,0,0-.1-.1-.2-.2l-.9,10.6v17.7l1.9,21.4-.8,9.3c0,.2,0,.4,0,.6,0,0,0,0,0,0l-1,11.4v17.7l1.1,12.1c.1,.3,.3,.5,.5,.8,0,.5-.2,.4-.4,.4l.7,8.1v1.1h-.1v.2h0v.2c-.1,.2-.2,.4-.3,.5,0,0,.2,0,.3,0,0,0,.2,.1,.2,.2v.8c-.1-.2-.1-.4-.3-.5-.2-.2,0,.3-.3,0,0,0,0-.1,0-.2,0,0,0,.1,0,.1-.3-.1-.6-.2-.9-.3-.1,0-.2-.1-.3-.2h-.3l-.4-.2-6.9-.6h.5c-.4,.2-1,.2-1.1,.4-.7,0-1.1-.2-1.3-.4h-15.8l-5.7,.5c0,.1-.3,.2-.5,.3-.3,0-.4-.1-.4-.2l-14.9,1.3-4.9-.4h0c-.5,0-1,.2-1.8,0,0,0,0,0-.2-.1h0l-4.5-.5,2.2,.2s0,0,0,0c-.8,0-1.5,.1-1.8,.3-.8-.2-.1-.4-.6-.6h-.7c0,0,0,0,0,0h0l-8.9-.8H21.3l-2.2,.2c0,.2-.4,.4-.2,.6h-1.1c0,0-.2-.1-.5-.1-.2,0-.2-.2-.2-.3h.7l-12.1,1v-.7l7.6-.7Zm-9.1-10.6c0,0,.1,.3,.1,.7-.1,.1-.1-.3-.1-.7Zm.1-31.9c0-.9,.3,.2,.5-.4v.9c-.2-.4-.4,0-.5-.5Zm-.3,.7h-.1v-.5h.1v.5Zm.2,1.6c0,.1,0,.5-.1,.5-.2-.3,0-1,.1-.5Zm.9,1.4c0,.5,0,.8-.2,.9-.1-.5,0-1.1,.2-.9Zm0,4.1c0,0,.1,.3,.1,.7-.1,.1-.1-.3-.1-.7Zm-.2,1.6c0-.6,0-1,.2-.9,0,.3,0,1.1-.2,.9Zm-.4-2c0,0,0,.4,.2,.5,0,.6-.2,0-.2-.5Zm1.1,14c0,0,0-.4-.2-.5,0-.9,.3-.1,.2,.5Zm41.8,22.5c-.4-.1-.6-.3-.7-.5,.7,0,1.4,.2,1.6,.4-.3,0-.1,0,0,0,0,0-.4,0-.7,0v.2c-.6,0-.7-.2-.2-.2Zm-34.8-.3c-1.3,0,.8-.3,0,0h0Zm2.7,.5c-1.1,0-1.6-.3-2.7-.4,1.3-.1,2.7-.1,3.8,0-.3,.2-.6,.3-1.1,.4Zm2.3-.3c.5,0,.5,.1,.2,.2-.5,0-.5-.1-.2-.2Zm-10.4,0c.6,0,.4,.2,.5,.4-.5,0-1,0-1.1-.2-.2-.2,.6-.1,.7-.2Zm-2.2-.5v.7h-.8v-.7h.8Zm-.9,0c0,0,0,.2,0,.3,0,.2,0,.2,0,.2,0,0,0,.1,0,.2h-.4s0,0,0,0v-.6h.4Zm-3.8,.3H1v.7H.2v-.7Zm11.9,.9c-.3,0-.8-.1-.9-.2-.1,0-.4-.2-.5-.2,0,0,.3,0,.2-.1,0-.1-.5-.3,0-.4,1.2,0,.7,.5,1.6,.6-.1,0-.6,.3-.2,.2,.5,0-.1,0,0,.2l6.8-.6c0,0-.1-.1,0-.2h1.1c0,0,.2,0,.2,.1l9.7-.9,7.5,.7c.3-.2,.7-.3,.9-.5,.7,0,.9,.2,.9,.3,2.8-.2,4.6,.3,6.1,.7-.1,0-.2,.1-.2,.2l4.4,.4h-.2c-.3,.2,.6,.3,.3,.4h.5c.2-.1,.5-.2,.4-.3l1.9,.2c0,0-.2,0-.2-.1l.7-.2c.5,.1,.9,.3,.8,.4l4.9,.4c.1,0,.4-.1,.7-.1,0,0,0,.1-.1,.2h1.2l4.8-.3h.7c0,.1,0,.2-.1,.2,.5,.1,1,.4,1.8,.2h.4l-7.5,.7-5.3-.5h0c-.7,0-.9,0-1.2-.1l-12.5-1.1,.3-.2h-1.5s0,0,0,0l-10-.9-8,.7h.2s0,0,.1,0h-.9s0,0,0,0h-3.9c.3,0,.6,.2,.6,.3h-.8c-.4,0-.8,0-1.1,0,0,0,0,0,0,0-.2,0-.6,0-.9,0h-.5c-.6,0-.9,.1-1,.2-.5,0-1,.1-1.4,.1,0,0,0,.2-.1,.3h0l-6.7,.7s0,0,0,0v-.8l6.4-.6Zm30.4,1.5h.9c-.4,.3-1.1,.4-2,.4,.1,0,.2-.1,.3-.2,.3,0,.6,0,.5,0h-.7c.2,0,.5,0,.8,0,0,0,.1,0,.2,0Zm-4.3,.3h-.4s0,0,.1,0l-2.7-.2c.1,0,.2-.2,.2-.3,1.1,0,2.3,0,3.2,.1,.1,.2-.2,.3-.5,.4Zm17.5-.4c0,.1-.3,.1-.2,.2-.8,0-.6-.3,.2-.2Zm-38.6-.2c-.6,0-.5-.2-.2-.3,.5,0,.1,.2,.2,.3Zm-1.1-.9h-1.1c0,0,.2,0,.2,0,0,0-.3,0-.3,0,.3,0,1.2,0,1.5,0l1,.2c0,0-.1,.1-.2,.2-.9,0-1.6,.3-2.3,.2,.1,0,.2-.1,.3-.2h.2c.5,0,.6-.1,.7-.2Zm12.8,.1c0,0,.2,0,.3,0-.6,0-.9,0-1,0h.7Zm-1.7-.8c.2,0,.5,0,.9,0,.2,0,.2,0,.2,.2h-1s0,0,0,0Zm-1.9,0h-.5c0,0-.1,0-.1,0,.6,0,.7,0,.6,0Zm5.2,0h-.9c.2,0,.8-.1,.9,0Zm5.9-.2c.6,0,.5,.2,.2,.3-.7,0-.3-.1-.2-.3Zm-32.2,1.2v-.2h.7v1c-.2,0-.4,0-.6,0,0,0,0-.1-.2-.2v-.2s0,0,0,0v-.5s0,0,0,0Zm-4,.2H.8v.7H0v-.7Zm13,.8c.1-.4,1.7-.3,2.9-.2l-2.6,.2h-.2Zm-13,0H0s0,0,0,0H0Zm3.7,.5h0c0-.2,.1-.2,.2-.2h0c.2,0,.5,0,.7,0v.2c-.3,0-.6,0-.9,0,0,0,0,0,0,0Zm0,.2s0,0,0,0h0c.1,0,.3,0,.5,0,0,0,0,0,0,.1h-.4Zm.5,0h0Zm3.6,.7h0Zm6.5,.1c-.2,.2-1.2,0-1.6,0,.3-.2,1.2,0,1.6,0Zm-8.7-.5v-.4l12.6-1.1c-.2,0-.5-.1-.1-.2,.4-.1,1.2,0,1.4,.1h1c0,0,0,0,.1,0,.6,0,.9,0,1.1-.2,.4,0,.7,0,.8,0h-.5l2,.4h.3c0,0,0,0,0,.1-.2,0-.4,0-.6,0h.3l-2.2,.2s0,0,0,0h-.2l-7.6,.7c-.1,0-.2,0-.3,0-.3,0-1,0-1.1,0h1l-6.7,.6-1.1-.2Zm9.8,0c0,0-.6,0-.9,0v-.2c.7,0,.5,0,.9,.1Zm1.4-.3c-.6,0-.8,0-.7-.2,.2,0,.8,0,.7,.2Zm27.8,.7c.1,0,.3,0,.5,0,0,0,0,0,0,0-.2,0-.3,0-.5,0Zm-3.5,.4c.8,0,1-.2,1.8-.3v.3c-.9,0-2.6,.2-1.8,0Zm2.2-.3h.8c-.3,0-.7,0-.8,0Zm10.4,.9h0c-.9,0-1.7,0-1.8-.1h1.8Zm9.8-.3c.4,0,.5,0,.9,0-.3,0-.5,.2-1.1,.2,0-.1,0-.2,.2-.3Zm1.8-.1c0,.1,0,.2-.7,.2,0-.1,0-.2,.7-.2Zm-40.7,.1c-1,0,.2-.3,0,0h0Zm21.1-.2c0,0,.1,0,.2,0h1.1c-.6,.1-1.4,.2-1.4,0Zm26.3,0c-.6,0-.7,0-.7-.2,.3,0,.7,0,.7,.2Zm-8.8,0c-.6,0-.7-.2-.2-.2-.1,0-.2,0-.3,0l-2.5,.2-7.2-.6-1.3-.2c0,0,.1,0,.2,0-.9,0,.6,0,.2-.2-.6,0-.6,0-.7,.1l-5.6-1h.6c0-.1,0-.3,.8-.3,0,.1,.2,.3,0,.4l7.8,.7c-.2-.1-.5-.2-.2-.3,.7,0,.5,.1,.7,.2h.3l4.4,.5h1.2c0-.2,0-.2,0-.3-.3-.2-1-.4-.7-.6,.7,0,1.2,.2,1.8,.3l1.2,.2-2.3,.2,3.9-.3c-.1,0-.2,0-.4-.1,0-.2,.7-.3,.5-.7,.9,0,1.4,.4,1.6,.4,.1,0,.3,0,.2-.1,.3,0,.3,.2,.5,.3l4.5-.4h.7c0,.2,.4,.2,.6,.3,0,0,0,0,0,0l1.3,.2-7.1,.6s0,0,0,0h-.6s0,0,0,0h-.3l-3.6,.3c0,.1-.1,.2,0,.3Zm3.6-.6c.5,0,.7,0,.7,.2h-.7v-.2Zm4.5,.2c-.4,0-.4,0-.7,0,0-.1,1,0,.7,0Zm1.1-.1c-.6,0-.8,0-.5-.2-.6,0-1.1,0-.9-.2,.7,0,.7,0,1.1,.1,0-.2-.3-.5,.7-.4,.5,.3-.3,.4-.5,.7Zm14.3,0s0,0,0,0c.3,0,.4,0,.5,0-.1,0-.2,0-.2,0,.7,0,.8-.3,2.1-.2,0,0,0-.2,.4-.2,.7,.1-.2,.1-.4,.3,.3,0,.7,0,1.1,0l-2.9,.3c-.2,0-.4,0-.5,0Zm-8.8,.9h.2c0,0,.1,0,.2,0,.1,0,.3,.2,.4,.2-.3,0-.7-.1-.8-.2Zm13.1,.2h1.3c-.5,.1-1,0-1.3,0Zm-37.5-1.7c0,0-.2,0-.3-.1h-.2s-.1,0,0,.2h.3s0,0,.2,0Zm55,1.3h0Zm1.3,.1h0Zm-3.9,.2c0,0,.4,0,.3-.1-.3,0-.7,.1-.3,.1Zm6.1-3.6h-.2c0,.2,0,.5,0,.8,.1,.2,0-.3,.1-.5,0-.1,0-.2,0-.4Zm-2.7,3.3c0,0,.2-.2,.1-.3,.3,0,.5,0,.5-.2-.6-.1-.5,.1-1,.2-.9,0-1.1,0-2.1,0-.6-.3-2-.4-2-.8-.4,.1-.7,.2-1.4,.3,0,.1,0,.2-.1,.3h.5l4.7,.5h.2s0,0,0,0h.1s0,0,0,0c0,0,0,0,.1,0h.3ZM.5,93.3h0c0-.2,0-.6,0-1.1,.1-.4,.3-1,.3-1.6,0-.5,0-1.4-.2-1.4,0,.9-.2,1.4,0,2.4,0,0,0,.6-.2,.5,0,.6,0,.9,0,1.2ZM.1,12s0,0,0,0l.2-2.2c0,0,.1,0,.1-.3,0,0,0,0,0,0v-1.5c.2,0,.2,0,.2,0,0-.3,0-.7,0-.9h0c0,0,0-.1,0-.1,0,0,.2,.3,.3,0,0-.5,0-.9-.2-1,0,.2,0,.3,0,.5,0,0,0,0,0,0l-.2-1.9s0,0,0,0c0,0,0-.2,.1-.3,0,0-.2-.2-.2,.1,0-.3-.1-.5,0-.9,0,0,0,0,0,0L0,.8V12.3c0-.2,.1-.3,.1-.3Zm.1-7.6s0,0,0,0h0ZM.8,85c-.1,.8,.1,.6,0,0H.8ZM.8,4.6c0,.1,0,.3,0,.6,.2,0,.1-.5,0-.6ZM47.4,156h0Zm19.5,1.3h0ZM113.8,24.6v-.2c0,0,0,.1,0,.2ZM1,7.9v-.9c0,.2,0,.8,0,.9Zm107.1,32v-.4h0v.4ZM4,155h0v0Zm-1.6-88.6v0h0ZM37.8,1.9h0ZM3.8,59.3v0h0Zm.6,9.3h0ZM35.5,1.6h-.4c0,0,.2,0,.4,0Zm-1.9-.5c.1,0,.2,.1,.5,.1,0,0,.2,0,.2-.1h-.7Zm16.2,1.5c.4,0,.7,0,.6-.1-.2,0-.2,0-.5,0,0,0-.2,0-.2,.2Zm.2,.4h0Zm61.5,10.1v0h0Zm0,5.3c0,.2,0,.7,.2,1,0,.1,0,.4,0,.5,0,0,0,0,.1-.1v-.2c-.2,0,0-.6,0-1,0,0,0-.6-.2-.5,0,.1,0,.3,0,.3ZM3.2,127.6v-.3h0v.3ZM108.3,7.6v.3h0v-.3Zm-24.1-5.3c0,0,.2,0,.2-.2-.2,0-.2,0-.5,0-.3,0-.2,.2,.3,.2ZM2,113.8c0-.8,0-1.1-.2-1.5v1.6h.1c0-.1,0-.1,0-.1ZM111.6,16.8v-1.9h-.2c0,.4-.1,1.9,.2,1.9ZM2.4,3.3c0-.2,0-.4-.2-.5,0,.2,0,.6,.2,.7,0,0,0-.2,0-.1Zm.2,41.8h.1c0-.5-.2-.5-.1,0Zm.2,.2c0,0,0,.3,0,.3,0-.2,0-.2,0-.5,0,0-.1,0-.1,.2Zm-1.7,5.8c0,.5,.1,.2,.2,.5,0-.4,0-.4-.2-.5Zm1.5-7.6c0,0-.1,0-.2-.2,0,.5,.1,.6,.2,.2Zm0-.3c.1,.2,0-1,0-1,0,.2,0,.6,0,1Zm.8-15.8c0,0-.2-.4-.2,0,0,0,0,.3,0,.5,0,0,.1-.2,.2-.5ZM.4,40.1c0,.4,0,.6,0,.6,0-.4,0-.6,0-.6ZM3.7,20.5v-1.6c0,.4,0,.9,0,1.6ZM.7,31.4c.2-.6-.2-.8,0,0H.7ZM2.4,1.9c0,0,.4,.3,.8,.3,0-.2-.4-.2-.8-.3Zm8.4-.3h0ZM2.5,2.2c-.1-.1-.2-.3-.5-.3,0,0,0,0,0,0,0,.1,.1,.3,.2,.4,0-.1,0-.2,0-.2,0,0,.1,0,.2,0ZM1.4,47.2c0,0-.2-.2-.2,.3,0,0,.2,0,.2-.3ZM2.6,2.9h-.1s0,.1,0,.3c.1,.2,0-.1,0-.3ZM1.1,44.6c0-.2,0-.2,0-.2v1.3c0-.3,0-.6,0-1.1ZM112.8,23.3c0-.3,0-.4,.1-.7-.1-.2-.2,.6-.1,.7ZM46.4,4.6h0ZM5.6,91.9c0-.2,0-.3,0-.3v-7.6l-.9,9.7c0,.4,.3,1.1,0,1.1,0,.7,.1-.3,.3,0,0,.8-.2,.6-.4,.5v-.5l-.2,2.1c.3,.1,.6,.2,.7,1.3-.2,.3-.4,.3-.6,0l1.1,12.5v-18.7c0,0,0-.1,0-.2Zm0,13.3c0-.4,0-.4,0-.7,.1,0,0,1,0,.7Zm0-5.2c-.3-.4,0,.9-.3,.7,0-1,0-.7,.2-1.6,0,0,.1,.4,.1,.9Zm101.8-14.8c0,.5,0,.7-.2,.7v17.7l1-11c0-.2-.1-.5,0-.8,0-.2,.1-.2,.2-.2v-.7c0,0,0,.2,0,.3-.1,0,0-.8,0-1.1,0,0,0,0,.1-.1v.3l-1.2-13.4v1.6c.2,.4,.3,1.1,.2,2,0,0-.1,.1-.2,.2v3.8c0,0,0,1,.2,.7Zm0,14.2c0,1-.3-.2,0,0h0Zm.4-3.8s0,0,0,0c0,.8-.2,0-.2-.2,0,0,.1,.2,.1,.2Zm-.2-2.3c-.2,.8-.2-.7,0,0h0ZM4.4,137.1c0,0,0,.1,0,.2v-.3h0Zm1.3-92.4c0-.2,0-.3,0-.4V23.5l-1.2,13.4,1.2,13.4v-5.6s0,0,0,0Zm101.5-10.5v.5h0v8.5l.6-7v.6c0,0,0,0,0,0,0-.4,0-.5,0-.6l.6-6.3-1.2-13.4v17.8h0Zm.5,.5c0,.8-.2,.8-.3,.5,0-.5,.1-.5,.3-.5Zm-.5-3.8c0-.8,.4,0,.4,.2,.1,0,.2-.4,.3,0,0,.4,0,.5,0,.9-.3-.2-.5-.5-.7-1.1Zm4.9,31.5c0-.5,.1-.5,.1-1.1-.2,.1-.3,.4-.4,1,0,.2,.2,.2,.3,.2ZM4.4,137.3v.2h0v-.2ZM92.6,5.3s0,0,0,0c-.6,0-.7,0-.9,0l-8.7-.8-13.4,1.2h26.7l-4.2-.4h.4Zm-12.7-.4c0-.2,1-.1,.9,0-.5,0-.6,0-.9,0Zm2.9-.2c1.2,0-.3,.3,0,.4-.4,0-.4-.4,0-.4Zm30.1,47.2v-.9h0v.9ZM47,152l6.6,.6v-.2c.8,0,.7,0,.6,.2l6.2,.6,7-.6c0,0,0-.1,.1-.1,.2,0,.4,0,.4,0l5.9-.5h-26.7Zm14.3,1c-.5,0-1.7,.1-1.6-.1,.4,0,1.7,0,1.6,.1Zm2.7-.4c0,.1-.2,.1-.2,.2-.9,0-1.8-.1-2.3-.3,.5-.2,1.5,0,2.5,0Zm-7-.5h0Zm50-.2c0,0,.1,.1,.1,.2,0,0,0,0-.1-.2h0c0,.2,.2,.3,.6,.5,.1,0,.2,0,.3-.2,0,0,.1-.2,.2-.3h0v-1.4l-.8-9.9c0-.1-.2-.5,0-1.1h0v1l-.2-3.4v5.2c0,.1,.2,.2,.2-.1,.2,.4,.3,2.2,.2,3.4-.1,.2-.2,.2-.4,.2v5.7c0,0,.1,0,.2,0v.3s0,0,0,0c0,0,0,0,0,0h-.2Zm.5-3.7c-.1,.4-.1,1.6-.3,1.8-.2-.9,0-1.9,.3-1.8Zm-.3,3.9c-.1,0-.1-.1,0,0,0,0,0,0,0,0Zm.2-.2c0,0,.3,0,.2,.1-.2,0,0,0-.2-.1Zm1.6-48.1h0Zm-.2,2.4v1h0v-1ZM1.1,145.8c0-.2,0-.4,0-.5h0v.6s0,0,0,0ZM110.6,64.8v.3s0,.2,.1,.2v-.5h-.1Zm0,5.1c0-.2,0-.2,0-.5,0-.3-.1,.5,0,.5Zm.3,.5c-.1-.1-.2,.3-.1,.6,.1,0,.1-.2,.1-.6Zm.8-10.6v1c0-.3,0-.7,0-1Zm-2.4-12.7v-.6c-.2-.1-.1,.7,0,.6Zm0,26.4v-.3h0v.3h0Zm-.2-.2h0Zm.4-29.2c0,0,0-.1,.1-.3,0,0,0,.1-.1,.3ZM2.6,134.4l-.2,1.8c0,0,.1-.1,.2-.3,0-.5,0-1,0-1.5Zm.2-8.4c0,0,0,.1-.1,.3,0,.2,.2,.2,.1-.3Zm-.2,8.4h0Zm106.5-62.6c0,0,0-.2,0-.3,0,0,0,0,0,0v.3ZM26.8,5.5c0-.3,.5-.4,1.3-.5l-5.6-.5h-.7c0,.2-.1,.3-.2,.4-.2,.1-.8,.2-1.1,.2-.3-.1,.2-.3,.5-.5l-10.2,.9s0,0,0,0c-.4,0-.7,0-1.2,0h26.3l-7.4-.6c-.3,.2-.6,.4-1.7,.5Zm-5-1h0ZM112,57c-.2-.1,0,.7,0,0h0ZM5.7,5.3h0Zm-1.2,114.9v-.7h0v.7Zm104,32.8h0c0,0,0,0,0,0ZM3.4,139.6v.5h0v-.5Z" fill="#231f20"/></g></svg>